#!OML:ASF X:\für Bonn\!DataBase\2005_08_12_Daniel\c3d\Daniel.ASF
:FULLY-SPECIFIED
:DEGREES
32
root 4.72484 16.5335 -0.210226 9.51789 -100.166 -34.6786
lowerback 23.0603 -0.0890713 -0.730964
upperback 7.79233 -2.08314 -10.478
thorax -4.6481 -1.44324 -10.6495
lowerneck 8.42284 9.15165 0.217328
upperneck 3.18852 12.0296 1.54192
head -0.462164 5.92043 0.0920015
rclavicle -1.38155e-014 -5.08889e-014
rhumerus -30.4483 20.379 -77.5835
rradius 77.0168
rwrist 18.6975
rhand -30.4832 27.3034
rfingers 7.12502
rthumb -3.78408 -2.64272
lclavicle -1.38155e-014 -5.08889e-014
lhumerus -53.8792 9.24142 58.3714
lradius 89.2573
lwrist 15.8196
lhand -15.1904 -20.7267
lfingers 7.12502
lthumb 10.9811 8.96608
rfemur -0.501896 -0.00857146 20.3918
rtibia 47.2478
rfoot -22.1978 1.04395
rtoes -3.96117
lfemur -31.3648 14.125 -14.1228
ltibia 117.493
lfoot 36.3238 -19.6083
ltoes -22.8747
33
root 4.66843 16.567 -0.190667 7.72873 -100.978 -35.0141
lowerback 24.9666 0.785866 -0.294147
upperback 8.39213 -1.07703 -10.7385
thorax -4.74678 -0.986917 -11.5785
lowerneck 8.65069 8.62649 0.0822503
upperneck 3.08271 11.3245 2.13232
head -0.576251 5.5572 0.292705
rclavicle -3.66758e-014 -5.40694e-014
rhumerus -29.5883 21.4025 -77.1992
rradius 77.4924
rwrist 17.4016
rhand -29.8542 27.2548
rfingers 7.12502
rthumb -3.1767 -2.70132
lclavicle -3.66758e-014 -5.40694e-014
lhumerus -54.152 9.97014 58.7177
lradius 89.925
lwrist 15.8491
lhand -14.9316 -21.232
lfingers 7.12502
lthumb 11.2307 8.44736
rfemur 2.74724 0.70005 20.1144
rtibia 45.8128
rfoot -21.8815 0.979481
rtoes -4.32125
lfemur -35.133 14.3916 -14.1754
ltibia 119.668
lfoot 37.7601 -19.3369
ltoes -22.0008
34
root 4.61092 16.5958 -0.16923 6.04876 -101.789 -35.4766
lowerback 26.942 1.63893 0.127283
upperback 8.96175 -0.103296 -10.9143
thorax -4.85824 -0.54706 -12.4424
lowerneck 8.94314 8.13694 -0.15927
upperneck 2.96661 10.6573 2.74286
head -0.708177 5.20925 0.517115
rclavicle 4.41302e-014 -3.18055e-014
rhumerus -28.8114 22.58 -76.6079
rradius 77.9773
rwrist 15.9605
rhand -29.2436 27.2629
rfingers 7.12502
rthumb -2.58701 -2.70116
lclavicle 4.41302e-014 -3.18055e-014
lhumerus -54.5972 10.7305 59.1785
lradius 90.662
lwrist 15.9391
lhand -14.7278 -21.7904
lfingers 7.12502
lthumb 11.4273 7.87821
rfemur 6.00038 1.33157 19.8048
rtibia 44.37
rfoot -21.5217 0.97017
rtoes -4.69292
lfemur -39.1066 14.7154 -14.2581
ltibia 121.496
lfoot 39.2053 -18.6955
ltoes -20.2563
35
root 4.55314 16.6106 -0.14573 4.49774 -102.584 -36.0588
lowerback 28.9515 2.50212 0.670936
upperback 9.52586 0.941161 -11.4932
thorax -4.91015 -0.03395 -12.9585
lowerneck 9.24199 7.61182 -0.547958
upperneck 2.83417 9.9316 3.50357
head -0.858458 4.82697 0.819125
rclavicle -6.53008e-014 6.67916e-014
rhumerus -28.1502 23.6003 -75.8191
rradius 78.4558
rwrist 14.4604
rhand -28.7182 27.3951
rfingers 7.12502
rthumb -2.07955 -2.57456
lclavicle -6.53008e-014 6.67916e-014
lhumerus -55.0687 11.167 59.784
lradius 91.5094
lwrist 16.1875
lhand -14.6223 -22.3241
lfingers 7.12502
lthumb 11.529 7.33878
rfemur 9.21366 1.89397 19.4642
rtibia 42.9013
rfoot -21.1319 1.01393
rtoes -5.19308
lfemur -43.2861 15.1699 -14.3582
ltibia 122.944
lfoot 40.2878 -17.9624
ltoes -20.3201
36
root 4.49355 16.6329 -0.121988 3.16782 -103.36 -36.7794
lowerback 30.96 3.35163 1.35453
upperback 10.0532 1.99821 -11.6718
thorax -4.92141 0.464536 -13.9496
lowerneck 9.58753 7.06651 -1.1101
upperneck 2.71845 9.16174 4.43618
head -1.02309 4.41577 1.21392
rclavicle -7.2954e-014 6.36111e-014
rhumerus -27.7069 24.4026 -74.891
rradius 78.9839
rwrist 12.9759
rhand -28.3069 27.6092
rfingers 7.12502
rthumb -1.68227 -2.36392
lclavicle -7.2954e-014 6.36111e-014
lhumerus -55.5624 11.3472 60.5133
lradius 92.3833
lwrist 16.4305
lhand -14.6133 -22.8571
lfingers 7.12502
lthumb 11.5377 6.8053
rfemur 12.358 2.40846 19.0673
rtibia 41.3876
rfoot -20.7165 1.1294
rtoes -5.65862
lfemur -47.3643 15.4367 -14.6147
ltibia 123.709
lfoot 40.8694 -16.6037
ltoes -21.9279
37
root 4.43551 16.6738 -0.0996217 2.24249 -104.128 -37.7745
lowerback 32.883 4.16939 1.88877
upperback 10.5139 2.9944 -11.771
thorax -4.91985 0.935592 -14.7694
lowerneck 10.0529 6.58049 -1.70245
upperneck 2.5619 8.46545 5.30033
head -1.21285 4.03782 1.59942
rclavicle 9.34288e-015 1.90833e-014
rhumerus -27.2601 25.3709 -73.7281
rradius 79.5407
rwrist 11.3685
rhand -27.9263 27.9036
rfingers 7.12502
rthumb -1.31472 -2.07211
lclavicle 9.34288e-015 1.90833e-014
lhumerus -56.191 11.6962 61.289
lradius 93.2164
lwrist 16.5611
lhand -14.6388 -23.314
lfingers 7.12502
lthumb 11.5131 6.34979
rfemur 15.355 2.87634 18.5499
rtibia 39.8513
rfoot -20.2517 1.33402
rtoes -6.0088
lfemur -51.2069 15.3053 -15.1055
ltibia 123.689
lfoot 41.1631 -14.8367
ltoes -20.9654
38
root 4.37786 16.7077 -0.0756156 1.63092 -104.865 -38.8769
lowerback 34.6343 4.93907 2.3207
upperback 10.9017 3.92368 -11.8168
thorax -4.89668 1.37744 -15.4612
lowerneck 10.5953 6.15946 -2.31627
upperneck 2.38322 7.85017 6.14425
head -1.41926 3.69651 1.99072
rclavicle -2.04748e-014 1.33583e-013
rhumerus -26.7935 26.4309 -72.4172
rradius 80.056
rwrist 9.75731
rhand -27.5898 28.2299
rfingers 7.12502
rthumb -0.989712 -1.74751
lclavicle -2.04748e-014 1.33583e-013
lhumerus -56.9545 12.1574 62.0557
lradius 93.9589
lwrist 16.5254
lhand -14.6638 -23.7677
lfingers 7.12502
lthumb 11.489 5.8975
rfemur 18.0362 3.30816 17.9526
rtibia 38.4254
rfoot -19.8232 1.61699
rtoes -6.36549
lfemur -55.0478 14.8779 -15.6953
ltibia 123.117
lfoot 40.4223 -12.7947
ltoes -20.1075
39
root 4.31929 16.7333 -0.0515695 1.31261 -105.57 -40.0945
lowerback 36.2548 5.68788 2.73312
upperback 11.2364 4.8416 -11.8284
thorax -4.84162 1.81998 -16.1089
lowerneck 11.18 5.75402 -2.9412
upperneck 2.22414 7.24865 7.00079
head -1.62253 3.35857 2.40193
rclavicle -8.96519e-014 1.30403e-013
rhumerus -26.2231 27.3998 -70.9785
rradius 80.4153
rwrist 8.05343
rhand -27.1447 28.5666
rfingers 7.12502
rthumb -0.559842 -1.41238
lclavicle -8.96519e-014 1.30403e-013
lhumerus -57.8488 12.4674 62.8884
lradius 94.7365
lwrist 16.3327
lhand -14.7848 -24.0925
lfingers 7.12502
lthumb 11.3723 5.5791
rfemur 20.3912 3.75062 17.3059
rtibia 37.2068
rfoot -19.4737 1.92883
rtoes -6.50304
lfemur -58.7622 14.2683 -16.2484
ltibia 121.998
lfoot 38.7899 -10.4256
ltoes -20.8636
40
root 4.25568 16.7436 -0.0273673 1.26094 -106.208 -41.4397
lowerback 37.7351 6.43428 3.08708
upperback 11.5421 5.75434 -11.8153
thorax -4.73493 2.26611 -16.6961
lowerneck 11.818 5.33145 -3.30948
upperneck 2.06034 6.6485 7.75357
head -1.81384 3.02103 2.7454
rclavicle -3.49861e-014 9.54166e-015
rhumerus -25.5947 28.2084 -69.5365
rradius 80.5968
rwrist 6.39209
rhand -26.5609 28.7697
rfingers 7.12502
rthumb 0.00398048 -1.21007
lclavicle -3.49861e-014 9.54166e-015
lhumerus -58.8228 12.5679 63.7404
lradius 95.5311
lwrist 16.0627
lhand -14.9707 -24.269
lfingers 7.12502
lthumb 11.193 5.41243
rfemur 22.4021 4.11992 16.5696
rtibia 36.3379
rfoot -19.2651 2.28848
rtoes -6.58218
lfemur -62.2859 13.5555 -16.7067
ltibia 120.411
lfoot 36.8352 -7.68881
ltoes -21.1569
41
root 4.18938 16.7433 -0.00460724 1.42408 -106.757 -42.8512
lowerback 39.0914 7.17537 3.32904
upperback 11.8071 6.64064 -11.7444
thorax -4.61789 2.70052 -17.1414
lowerneck 12.4366 4.89052 -3.40823
upperneck 1.92537 6.05218 8.33721
head -1.96755 2.68932 2.99242
rclavicle -2.78299e-014 -2.22639e-014
rhumerus -25.0458 28.8235 -68.1516
rradius 80.7203
rwrist 4.93842
rhand -25.7939 28.7587
rfingers 7.12502
rthumb 0.744818 -1.21972
lclavicle -2.78299e-014 -2.22639e-014
lhumerus -59.7529 12.5642 64.6205
lradius 96.1671
lwrist 15.6554
lhand -15.1972 -24.3739
lfingers 7.12502
lthumb 10.9745 5.31922
rfemur 24.1149 4.45281 15.811
rtibia 35.7428
rfoot -19.2213 2.63757
rtoes -6.57295
lfemur -65.5588 12.6972 -17.0213
ltibia 118.305
lfoot 34.5767 -4.69669
ltoes -20.7021
42
root 4.12358 16.7401 0.0158802 1.95406 -107.225 -44.4196
lowerback 40.32 7.88118 3.49277
upperback 11.9992 7.46829 -11.6719
thorax -4.54027 3.10531 -17.521
lowerneck 13.0557 4.46774 -3.46086
upperneck 1.81352 5.4856 8.91924
head -2.11046 2.37049 3.23608
rclavicle -4.37326e-014 1.52667e-013
rhumerus -24.5999 29.1977 -66.9275
rradius 80.7088
rwrist 3.72062
rhand -24.8532 28.5885
rfingers 7.12502
rthumb 1.65338 -1.38482
lclavicle -4.37326e-014 1.52667e-013
lhumerus -60.4861 12.5319 65.4635
lradius 96.4306
lwrist 15.1322
lhand -15.4153 -24.4588
lfingers 7.12502
lthumb 10.7642 5.24541
rfemur 25.5234 4.7322 14.9904
rtibia 35.2886
rfoot -19.2321 2.95097
rtoes -6.51912
lfemur -68.5526 11.6334 -17.2256
ltibia 115.553
lfoot 31.8084 -1.55005
ltoes -19.8537
